<?xml version="1.0" encoding="utf-8" ?>
<!DOCTYPE svg PUBLIC "-//W3C//DTD SVG 1.1//EN" "http://www.w3.org/Graphics/SVG/1.1/DTD/svg11.dtd">
<svg height="1092" version="1.1" width="1906" xmlns="http://www.w3.org/2000/svg">
<rect fill="#ffffff" height="104" stroke="#ffffff" stroke-width="1" width="202" x="710" y="142"/>
<rect fill="none" height="104" stroke="#000000" stroke-width="1" width="202" x="710" y="142"/>
<text font-family="Dialog" font-size="12" x="770" y="155">
contol_port_t</text>
<rect fill="#000000" height="1" stroke="#000000" stroke-width="1" width="202" x="710" y="165"/>
<text font-family="Dialog" font-size="12" x="714" y="179">
parent : void*</text>
<rect fill="#000000" height="1" stroke="#000000" stroke-width="1" width="202" x="710" y="205"/>
<text font-family="Dialog" font-size="12" font-style="italic" x="714" y="219">
new_control_message() : void</text>
<rect fill="#ffffff" height="104" stroke="#ffffff" stroke-width="1" width="184" x="1230" y="142"/>
<rect fill="none" height="104" stroke="#000000" stroke-width="1" width="184" x="1230" y="142"/>
<text font-family="Dialog" font-size="12" x="1286" y="155">
data_port_t</text>
<rect fill="#000000" height="1" stroke="#000000" stroke-width="1" width="184" x="1230" y="165"/>
<rect fill="#000000" height="1" stroke="#000000" stroke-width="1" width="184" x="1230" y="203"/>
<text font-family="Dialog" font-size="12" font-style="italic" x="1234" y="217">
new_data() : void</text>
<rect fill="#ffffff" height="152" stroke="#ffffff" stroke-width="1" width="199" x="102" y="502"/>
<rect fill="none" height="152" stroke="#000000" stroke-width="1" width="199" x="102" y="502"/>
<text font-family="Dialog" font-size="12" x="167" y="515">
sink_uart_t</text>
<rect fill="#000000" height="1" stroke="#000000" stroke-width="1" width="199" x="102" y="525"/>
<text font-family="Dialog" font-size="12" x="106" y="539">
control_out_count : int</text>
<text font-family="Dialog" font-size="12" x="106" y="555">
uart_light : uart_light_regs_t*</text>
<rect fill="#000000" height="1" stroke="#000000" stroke-width="1" width="199" x="102" y="565"/>
<text font-family="Dialog" font-size="12" x="106" y="579">
update() : void</text>
<text font-family="Dialog" font-size="12" x="106" y="595">
new_data() : void</text>
<text font-family="Dialog" font-size="12" x="106" y="611">
init() : void</text>
<text font-family="Dialog" font-size="12" x="106" y="627">
add_control_out() : void</text>
<text font-family="Dialog" font-size="12" x="106" y="643">
send_message() : void</text>
<polyline fill="none" points="270,502 270,430 270,438 270,390 1126,390 1126,294 1214,294 1214,238 1230,238" stroke="#000000" stroke-width="1"/>
<polygon fill="#000000" points="270,502 265,492 270,482 275,492" stroke="#000000" stroke-width="1"/>
<polygon fill="none" points="270,502 265,492 270,482 275,492" stroke="#000000" stroke-width="1"/>
<text font-family="Dialog" font-size="12" x="279" y="496">
0..1</text>
<text font-family="Dialog" font-size="12" x="1209" y="224">
1</text>
<polyline fill="none" points="246,502 246,358 614,358 614,230 710,230" stroke="#000000" stroke-width="1"/>
<polygon fill="#ffffff" points="246,502 241,492 246,482 251,492" stroke="#ffffff" stroke-width="1"/>
<polygon fill="none" points="246,502 241,492 246,482 251,492" stroke="#000000" stroke-width="1"/>
<text font-family="Dialog" font-size="12" x="218" y="483">
0..*</text>
<text font-family="Dialog" font-size="12" x="683" y="225">
0..8</text>
<rect fill="#ffffff" height="184" stroke="#ffffff" stroke-width="1" width="207" x="310" y="502"/>
<rect fill="none" height="184" stroke="#000000" stroke-width="1" width="207" x="310" y="502"/>
<text font-family="Dialog" font-size="12" x="368" y="515">
sink_sd_card_t</text>
<rect fill="#000000" height="1" stroke="#000000" stroke-width="1" width="207" x="310" y="525"/>
<text font-family="Dialog" font-size="12" x="314" y="539">
pdrv : BYTE</text>
<text font-family="Dialog" font-size="12" x="314" y="555">
status : DSTATUS</text>
<text font-family="Dialog" font-size="12" x="314" y="571">
fatFs : FATFS</text>
<text font-family="Dialog" font-size="12" x="314" y="587">
file : FIL</text>
<text font-family="Dialog" font-size="12" x="314" y="603">
sd_card_regs : sdcard_regs_t*</text>
<rect fill="#000000" height="1" stroke="#000000" stroke-width="1" width="207" x="310" y="613"/>
<text font-family="Dialog" font-size="12" x="314" y="627">
update() : void</text>
<text font-family="Dialog" font-size="12" x="314" y="643">
new_data() : void</text>
<text font-family="Dialog" font-size="12" x="314" y="659">
init() : void</text>
<text font-family="Dialog" font-size="12" x="314" y="675">
write_byte() : void</text>
<rect fill="#ffffff" height="104" stroke="#ffffff" stroke-width="1" width="155" x="110" y="222"/>
<rect fill="none" height="104" stroke="#000000" stroke-width="1" width="155" x="110" y="222"/>
<text font-family="Dialog" font-size="12" font-style="italic" x="152" y="235">
formatter_t</text>
<rect fill="#000000" height="1" stroke="#000000" stroke-width="1" width="155" x="110" y="245"/>
<text font-family="Dialog" font-size="12" x="114" y="259">
param : void*</text>
<text font-family="Dialog" font-size="12" x="114" y="275">
*write_byte : void</text>
<rect fill="#000000" height="1" stroke="#000000" stroke-width="1" width="155" x="110" y="285"/>
<text font-family="Dialog" font-size="12" font-style="italic" x="114" y="299">
format() : void</text>
<text font-family="Dialog" font-size="12" x="114" y="315">
set_write_dest() : void</text>
<rect fill="#ffffff" height="88" stroke="#ffffff" stroke-width="1" width="140" x="14" y="366"/>
<rect fill="none" height="88" stroke="#000000" stroke-width="1" width="140" x="14" y="366"/>
<text font-family="Dialog" font-size="12" x="26" y="379">
formatter_simple_t</text>
<rect fill="#000000" height="1" stroke="#000000" stroke-width="1" width="140" x="14" y="389"/>
<text font-family="Dialog" font-size="12" x="18" y="403">
count : int</text>
<rect fill="#000000" height="1" stroke="#000000" stroke-width="1" width="140" x="14" y="413"/>
<text font-family="Dialog" font-size="12" x="18" y="427">
format() : void</text>
<text font-family="Dialog" font-size="12" x="18" y="443">
init() : void</text>
<polyline fill="none" points="138,366 138,325" stroke="#000000" stroke-width="1"/>
<polygon fill="#ffffff" points="138,325 145,337 131,337" stroke="#ffffff" stroke-width="1"/>
<polygon fill="none" points="138,325 145,337 131,337" stroke="#000000" stroke-width="1"/>
<polyline fill="none" points="174,502 174,325" stroke="#000000" stroke-width="1"/>
<polygon fill="#ffffff" points="174,502 169,492 174,482 179,492" stroke="#ffffff" stroke-width="1"/>
<polygon fill="none" points="174,502 169,492 174,482 179,492" stroke="#000000" stroke-width="1"/>
<text font-family="Dialog" font-size="12" x="146" y="485">
0..*</text>
<text font-family="Dialog" font-size="12" x="153" y="352">
1</text>
<polyline fill="none" points="342,502 342,310 264,310" stroke="#000000" stroke-width="1"/>
<polygon fill="#ffffff" points="342,502 337,492 342,482 347,492" stroke="#ffffff" stroke-width="1"/>
<polygon fill="none" points="342,502 337,492 342,482 347,492" stroke="#000000" stroke-width="1"/>
<text font-family="Dialog" font-size="12" x="314" y="485">
0..*</text>
<text font-family="Dialog" font-size="12" x="275" y="305">
1</text>
<rect fill="#ffffff" height="85" stroke="#ffffff" stroke-width="1" width="152" x="990" y="14"/>
<rect fill="none" height="85" stroke="#000000" stroke-width="1" width="152" x="990" y="14"/>
<text font-family="Dialog" font-size="12" font-style="italic" x="1002" y="27">
datastream_object_t</text>
<rect fill="#000000" height="1" stroke="#000000" stroke-width="1" width="152" x="990" y="37"/>
<rect fill="#000000" height="1" stroke="#000000" stroke-width="1" width="152" x="990" y="66"/>
<text font-family="Dialog" font-size="12" x="994" y="80">
update() : void</text>
<rect fill="#ffffff" height="112" stroke="#ffffff" stroke-width="1" width="254" x="934" y="142"/>
<rect fill="none" height="112" stroke="#000000" stroke-width="1" width="254" x="934" y="142"/>
<text font-family="Dialog" font-size="12" font-style="italic" x="995" y="155">
datastream_source_t</text>
<rect fill="#000000" height="1" stroke="#000000" stroke-width="1" width="254" x="934" y="165"/>
<text font-family="Dialog" font-size="12" x="938" y="179">
id : unsigned int</text>
<rect fill="#000000" height="1" stroke="#000000" stroke-width="1" width="254" x="934" y="193"/>
<text font-family="Dialog" font-size="12" font-style="italic" x="938" y="207">
send_data() : void</text>
<text font-family="Dialog" font-size="12" x="938" y="223">
init() : void</text>
<text font-family="Dialog" font-size="12" x="938" y="239">
generate_software_timestamp() : void</text>
<polyline fill="none" points="1062,142 1062,98" stroke="#000000" stroke-width="1"/>
<polygon fill="#ffffff" points="1062,98 1069,110 1055,110" stroke="#ffffff" stroke-width="1"/>
<polygon fill="none" points="1062,98 1069,110 1055,110" stroke="#000000" stroke-width="1"/>
<polyline fill="none" points="358,502 358,78 990,78" stroke="#000000" stroke-width="1"/>
<polygon fill="#ffffff" points="990,78 978,85 978,71" stroke="#ffffff" stroke-width="1"/>
<polygon fill="none" points="990,78 978,85 978,71" stroke="#000000" stroke-width="1"/>
<rect fill="#ffffff" height="120" stroke="#ffffff" stroke-width="1" width="203" x="742" y="502"/>
<rect fill="none" height="120" stroke="#000000" stroke-width="1" width="203" x="742" y="502"/>
<text font-family="Dialog" font-size="12" x="788" y="515">
device_uart_raw_t</text>
<rect fill="#000000" height="1" stroke="#000000" stroke-width="1" width="203" x="742" y="525"/>
<text font-family="Dialog" font-size="12" x="746" y="539">
uart_light : uart_light_regs_t*</text>
<rect fill="#000000" height="1" stroke="#000000" stroke-width="1" width="203" x="742" y="549"/>
<text font-family="Dialog" font-size="12" x="746" y="563">
send_data() : void</text>
<text font-family="Dialog" font-size="12" x="746" y="579">
new_control_message() : void</text>
<text font-family="Dialog" font-size="12" x="746" y="595">
init() : void</text>
<text font-family="Dialog" font-size="12" x="746" y="611">
set_data_out() : void</text>
<polyline fill="none" points="206,502 206,342 286,342 286,46 990,46" stroke="#000000" stroke-width="1"/>
<polygon fill="#ffffff" points="990,46 978,53 978,39" stroke="#ffffff" stroke-width="1"/>
<polygon fill="none" points="990,46 978,53 978,39" stroke="#000000" stroke-width="1"/>
<polyline fill="none" points="814,502 814,454 1006,454 1006,253" stroke="#000000" stroke-width="1"/>
<polygon fill="#ffffff" points="1006,253 1013,265 999,265" stroke="#ffffff" stroke-width="1"/>
<polygon fill="none" points="1006,253 1013,265 999,265" stroke="#000000" stroke-width="1"/>
<polyline fill="none" points="750,502 750,245" stroke="#000000" stroke-width="1"/>
<polygon fill="#000000" points="750,502 745,492 750,482 755,492" stroke="#000000" stroke-width="1"/>
<polygon fill="none" points="750,502 745,492 750,482 755,492" stroke="#000000" stroke-width="1"/>
<text font-family="Dialog" font-size="12" x="721" y="485">
0..1</text>
<text font-family="Dialog" font-size="12" x="728" y="270">
1</text>
<polyline fill="none" points="782,502 782,430 1310,430 1310,245" stroke="#000000" stroke-width="1"/>
<polygon fill="#ffffff" points="782,502 777,492 782,482 787,492" stroke="#ffffff" stroke-width="1"/>
<polygon fill="none" points="782,502 777,492 782,482 787,492" stroke="#000000" stroke-width="1"/>
<text font-family="Dialog" font-size="12" x="754" y="485">
0..*</text>
<text font-family="Dialog" font-size="12" x="1315" y="268">
0..1</text>
<polyline fill="none" points="478,502 478,414 1286,414 1286,245" stroke="#000000" stroke-width="1"/>
<polygon fill="#000000" points="478,502 473,492 478,482 483,492" stroke="#000000" stroke-width="1"/>
<polygon fill="none" points="478,502 473,492 478,482 483,492" stroke="#000000" stroke-width="1"/>
<text font-family="Dialog" font-size="12" x="449" y="485">
0..1</text>
<text font-family="Dialog" font-size="12" x="1299" y="272">
1</text>
<rect fill="#ffffff" height="288" stroke="#ffffff" stroke-width="1" width="203" x="958" y="502"/>
<rect fill="none" height="288" stroke="#000000" stroke-width="1" width="203" x="958" y="502"/>
<text font-family="Dialog" font-size="12" x="1013" y="515">
device_hct99_t</text>
<rect fill="#000000" height="1" stroke="#000000" stroke-width="1" width="203" x="958" y="525"/>
<text font-family="Dialog" font-size="12" x="962" y="539">
expected_byte : int</text>
<text font-family="Dialog" font-size="12" x="962" y="555">
value : simple_float_b10_t</text>
<text font-family="Dialog" font-size="12" x="962" y="571">
err_code : unsigned char</text>
<text font-family="Dialog" font-size="12" x="962" y="587">
val_name : char*</text>
<text font-family="Dialog" font-size="12" x="962" y="603">
err_name : char*</text>
<text font-family="Dialog" font-size="12" x="962" y="619">
color_alternative : char</text>
<text font-family="Dialog" font-size="12" x="962" y="635">
uart_light : uart_light_regs_t*</text>
<rect fill="#000000" height="1" stroke="#000000" stroke-width="1" width="203" x="958" y="649"/>
<text font-family="Dialog" font-size="12" x="962" y="663">
send_data() : void</text>
<text font-family="Dialog" font-size="12" x="962" y="679">
new_control_message() : void</text>
<text font-family="Dialog" font-size="12" x="962" y="695">
init() : void</text>
<text font-family="Dialog" font-size="12" x="962" y="711">
set_data_out() : void</text>
<text font-family="Dialog" font-size="12" x="962" y="727">
set_error_out() : void</text>
<text font-family="Dialog" font-size="12" x="962" y="743">
set_misc_out() : void</text>
<text font-family="Dialog" font-size="12" x="962" y="759">
send_paramters() : void</text>
<text font-family="Dialog" font-size="12" x="962" y="775">
send_command() : void</text>
<polyline fill="none" points="1030,502 1030,253" stroke="#000000" stroke-width="1"/>
<polygon fill="#ffffff" points="1030,253 1037,265 1023,265" stroke="#ffffff" stroke-width="1"/>
<polygon fill="none" points="1030,253 1037,265 1023,265" stroke="#000000" stroke-width="1"/>
<polyline fill="none" points="966,502 966,366 822,366 822,245" stroke="#000000" stroke-width="1"/>
<polygon fill="#000000" points="966,502 961,492 966,482 971,492" stroke="#000000" stroke-width="1"/>
<polygon fill="none" points="966,502 961,492 966,482 971,492" stroke="#000000" stroke-width="1"/>
<text font-family="Dialog" font-size="12" x="934" y="486">
0..1</text>
<text font-family="Dialog" font-size="12" x="801" y="272">
1</text>
<polyline fill="none" points="1142,502 1142,310 1262,310 1262,245" stroke="#000000" stroke-width="1"/>
<polygon fill="#ffffff" points="1142,502 1137,492 1142,482 1147,492" stroke="#ffffff" stroke-width="1"/>
<polygon fill="none" points="1142,502 1137,492 1142,482 1147,492" stroke="#000000" stroke-width="1"/>
<text font-family="Dialog" font-size="12" x="1113" y="491">
0..*</text>
<text font-family="Dialog" font-size="12" x="1233" y="269">
0..3</text>
<rect fill="#ffffff" height="104" stroke="#ffffff" stroke-width="1" width="203" x="526" y="502"/>
<rect fill="none" height="104" stroke="#000000" stroke-width="1" width="203" x="526" y="502"/>
<text font-family="Dialog" font-size="12" x="585" y="515">
device_pwm_t</text>
<rect fill="#000000" height="1" stroke="#000000" stroke-width="1" width="203" x="526" y="525"/>
<text font-family="Dialog" font-size="12" x="530" y="539">
last_freq : unsigned int</text>
<rect fill="#000000" height="1" stroke="#000000" stroke-width="1" width="203" x="526" y="557"/>
<text font-family="Dialog" font-size="12" x="530" y="571">
new_control_message() : void</text>
<text font-family="Dialog" font-size="12" x="530" y="587">
init() : void</text>
<polyline fill="none" points="638,502 638,358 718,358 718,245" stroke="#000000" stroke-width="1"/>
<polygon fill="#000000" points="638,502 633,492 638,482 643,492" stroke="#000000" stroke-width="1"/>
<polygon fill="none" points="638,502 633,492 638,482 643,492" stroke="#000000" stroke-width="1"/>
<text font-family="Dialog" font-size="12" x="609" y="485">
0..1</text>
<text font-family="Dialog" font-size="12" x="697" y="262">
1</text>
<rect fill="#ffffff" height="120" stroke="#ffffff" stroke-width="1" width="203" x="398" y="142"/>
<rect fill="none" height="120" stroke="#000000" stroke-width="1" width="203" x="398" y="142"/>
<text font-family="Dialog" font-size="12" x="434" y="155">
dm_splitter_control_t</text>
<rect fill="#000000" height="1" stroke="#000000" stroke-width="1" width="203" x="398" y="165"/>
<text font-family="Dialog" font-size="12" x="402" y="179">
target_count : int</text>
<rect fill="#000000" height="1" stroke="#000000" stroke-width="1" width="203" x="398" y="197"/>
<text font-family="Dialog" font-size="12" x="402" y="211">
new_control_message() : void</text>
<text font-family="Dialog" font-size="12" x="402" y="227">
init() : void</text>
<text font-family="Dialog" font-size="12" x="402" y="243">
add_control_out() : int</text>
<polyline fill="none" points="600,158 710,158" stroke="#000000" stroke-width="1"/>
<polygon fill="#000000" points="600,158 610,153 620,158 610,163" stroke="#000000" stroke-width="1"/>
<polygon fill="none" points="600,158 610,153 620,158 610,163" stroke="#000000" stroke-width="1"/>
<text font-family="Dialog" font-size="12" x="603" y="153">
0..1</text>
<text font-family="Dialog" font-size="12" x="691" y="153">
1</text>
<polyline fill="none" points="600,190 710,190" stroke="#000000" stroke-width="1"/>
<polygon fill="#ffffff" points="600,190 610,185 620,190 610,195" stroke="#ffffff" stroke-width="1"/>
<polygon fill="none" points="600,190 610,185 620,190 610,195" stroke="#000000" stroke-width="1"/>
<text font-family="Dialog" font-size="12" x="604" y="185">
0..*</text>
<text font-family="Dialog" font-size="12" x="683" y="185">
0..8</text>
<rect fill="#ffffff" height="120" stroke="#ffffff" stroke-width="1" width="192" x="1494" y="142"/>
<rect fill="none" height="120" stroke="#000000" stroke-width="1" width="192" x="1494" y="142"/>
<text font-family="Dialog" font-size="12" x="1532" y="155">
dm_splitter_data_t</text>
<rect fill="#000000" height="1" stroke="#000000" stroke-width="1" width="192" x="1494" y="165"/>
<text font-family="Dialog" font-size="12" x="1498" y="179">
target_count : int</text>
<rect fill="#000000" height="1" stroke="#000000" stroke-width="1" width="192" x="1494" y="197"/>
<text font-family="Dialog" font-size="12" x="1498" y="211">
new_data() : void</text>
<text font-family="Dialog" font-size="12" x="1498" y="227">
init() : void</text>
<text font-family="Dialog" font-size="12" x="1498" y="243">
add_data_out() : void</text>
<polyline fill="none" points="1494,158 1413,158" stroke="#000000" stroke-width="1"/>
<polygon fill="#000000" points="1494,158 1484,163 1474,158 1484,153" stroke="#000000" stroke-width="1"/>
<polygon fill="none" points="1494,158 1484,163 1474,158 1484,153" stroke="#000000" stroke-width="1"/>
<text font-family="Dialog" font-size="12" x="1467" y="153">
0..1</text>
<text font-family="Dialog" font-size="12" x="1424" y="153">
1</text>
<polyline fill="none" points="1494,190 1413,190" stroke="#000000" stroke-width="1"/>
<polygon fill="#ffffff" points="1494,190 1484,195 1474,190 1484,185" stroke="#ffffff" stroke-width="1"/>
<polygon fill="none" points="1494,190 1484,195 1474,190 1484,185" stroke="#000000" stroke-width="1"/>
<text font-family="Dialog" font-size="12" x="1468" y="185">
0..*</text>
<text font-family="Dialog" font-size="12" x="1416" y="185">
0..8</text>
<rect fill="#ffffff" height="160" stroke="#ffffff" stroke-width="1" width="191" x="1174" y="502"/>
<rect fill="none" height="160" stroke="#000000" stroke-width="1" width="191" x="1174" y="502"/>
<text font-family="Dialog" font-size="12" x="1235" y="515">
dm_timer_t</text>
<rect fill="#000000" height="1" stroke="#000000" stroke-width="1" width="191" x="1174" y="525"/>
<text font-family="Dialog" font-size="12" x="1178" y="539">
timer : timer_regs_t*</text>
<text font-family="Dialog" font-size="12" x="1178" y="555">
compare : compare_regs_t*</text>
<rect fill="#000000" height="1" stroke="#000000" stroke-width="1" width="191" x="1174" y="569"/>
<text font-family="Dialog" font-size="12" x="1178" y="583">
update() : void</text>
<text font-family="Dialog" font-size="12" x="1178" y="599">
init() : void</text>
<text font-family="Dialog" font-size="12" x="1178" y="615">
set_control_out() : void</text>
<text font-family="Dialog" font-size="12" x="1178" y="631">
set_interval() : void</text>
<text font-family="Dialog" font-size="12" x="1178" y="647">
set_control_action() : void</text>
<polyline fill="none" points="1198,502 1198,126 1102,126 1102,98" stroke="#000000" stroke-width="1"/>
<polygon fill="#ffffff" points="1102,98 1109,110 1095,110" stroke="#ffffff" stroke-width="1"/>
<polygon fill="none" points="1102,98 1109,110 1095,110" stroke="#000000" stroke-width="1"/>
<polyline fill="none" points="1222,502 1222,350 782,350 782,245" stroke="#000000" stroke-width="1"/>
<polygon fill="#ffffff" points="1222,502 1217,492 1222,482 1227,492" stroke="#ffffff" stroke-width="1"/>
<polygon fill="none" points="1222,502 1217,492 1222,482 1227,492" stroke="#000000" stroke-width="1"/>
<text font-family="Dialog" font-size="12" x="1229" y="491">
0..*</text>
<text font-family="Dialog" font-size="12" x="753" y="272">
0..1</text>
<rect fill="#ffffff" height="117" stroke="#ffffff" stroke-width="1" width="180" x="1374" y="502"/>
<rect fill="none" height="117" stroke="#000000" stroke-width="1" width="180" x="1374" y="502"/>
<text font-family="Dialog" font-size="12" x="1425" y="515">
dm_trigger_t</text>
<rect fill="#000000" height="1" stroke="#000000" stroke-width="1" width="180" x="1374" y="525"/>
<rect fill="#000000" height="1" stroke="#000000" stroke-width="1" width="180" x="1374" y="546"/>
<text font-family="Dialog" font-size="12" x="1378" y="560">
new_data() : void</text>
<text font-family="Dialog" font-size="12" x="1378" y="576">
init() : void</text>
<text font-family="Dialog" font-size="12" x="1378" y="592">
set_control_out() : void</text>
<text font-family="Dialog" font-size="12" x="1378" y="608">
set_control_action() : void</text>
<polyline fill="none" points="1390,502 1390,334 854,334 854,245" stroke="#000000" stroke-width="1"/>
<polygon fill="#ffffff" points="1390,502 1385,492 1390,482 1395,492" stroke="#ffffff" stroke-width="1"/>
<polygon fill="none" points="1390,502 1385,492 1390,482 1395,492" stroke="#000000" stroke-width="1"/>
<text font-family="Dialog" font-size="12" x="1362" y="485">
0..*</text>
<text font-family="Dialog" font-size="12" x="825" y="272">
0..1</text>
<polyline fill="none" points="1406,502 1406,318 1342,318 1342,245" stroke="#000000" stroke-width="1"/>
<polygon fill="#000000" points="1406,502 1401,492 1406,482 1411,492" stroke="#000000" stroke-width="1"/>
<polygon fill="none" points="1406,502 1401,492 1406,482 1411,492" stroke="#000000" stroke-width="1"/>
<text font-family="Dialog" font-size="12" x="1415" y="492">
0..1</text>
<text font-family="Dialog" font-size="12" x="1355" y="265">
1</text>
<rect fill="#ffffff" height="117" stroke="#ffffff" stroke-width="1" width="149" x="1566" y="502"/>
<rect fill="none" height="117" stroke="#000000" stroke-width="1" width="149" x="1566" y="502"/>
<text font-family="Dialog" font-size="12" x="1608" y="515">
dm_filter_t</text>
<rect fill="#000000" height="1" stroke="#000000" stroke-width="1" width="149" x="1566" y="525"/>
<rect fill="#000000" height="1" stroke="#000000" stroke-width="1" width="149" x="1566" y="546"/>
<text font-family="Dialog" font-size="12" x="1570" y="560">
new_data() : void</text>
<text font-family="Dialog" font-size="12" x="1570" y="576">
init() : void</text>
<text font-family="Dialog" font-size="12" x="1570" y="592">
set_data_out() : void</text>
<text font-family="Dialog" font-size="12" x="1570" y="608">
set_condition() : void</text>
<polyline fill="none" points="1574,502 1574,302 1374,302 1374,245" stroke="#000000" stroke-width="1"/>
<polygon fill="#ffffff" points="1574,502 1569,492 1574,482 1579,492" stroke="#ffffff" stroke-width="1"/>
<polygon fill="none" points="1574,502 1569,492 1574,482 1579,492" stroke="#000000" stroke-width="1"/>
<text font-family="Dialog" font-size="12" x="1546" y="485">
0..*</text>
<text font-family="Dialog" font-size="12" x="1380" y="270">
0..1</text>
<polyline fill="none" points="1598,502 1598,286 1406,286 1406,245" stroke="#000000" stroke-width="1"/>
<polygon fill="#000000" points="1598,502 1593,492 1598,482 1603,492" stroke="#000000" stroke-width="1"/>
<polygon fill="none" points="1598,502 1593,492 1598,482 1603,492" stroke="#000000" stroke-width="1"/>
<text font-family="Dialog" font-size="12" x="1605" y="487">
0..1</text>
<text font-family="Dialog" font-size="12" x="1432" y="277">
1</text>
<rect fill="#ffffff" height="72" stroke="#ffffff" stroke-width="1" width="171" x="1518" y="718"/>
<rect fill="none" height="72" stroke="#000000" stroke-width="1" width="171" x="1518" y="718"/>
<text font-family="Dialog" font-size="12" font-style="italic" x="1530" y="731">
datastream_condition_t</text>
<rect fill="#000000" height="1" stroke="#000000" stroke-width="1" width="171" x="1518" y="741"/>
<rect fill="#000000" height="1" stroke="#000000" stroke-width="1" width="171" x="1518" y="763"/>
<text font-family="Dialog" font-size="12" font-style="italic" x="1522" y="777">
is_fullfilled() : int</text>
<rect fill="#ffffff" height="120" stroke="#ffffff" stroke-width="1" width="233" x="1358" y="830"/>
<rect fill="none" height="120" stroke="#000000" stroke-width="1" width="233" x="1358" y="830"/>
<text font-family="Dialog" font-size="12" x="1370" y="843">
datastream_condition_compare_t</text>
<rect fill="#000000" height="1" stroke="#000000" stroke-width="1" width="233" x="1358" y="853"/>
<text font-family="Dialog" font-size="12" x="1362" y="867">
compare_value : int</text>
<text font-family="Dialog" font-size="12" x="1362" y="883">
*compare_func : int</text>
<rect fill="#000000" height="1" stroke="#000000" stroke-width="1" width="233" x="1358" y="893"/>
<text font-family="Dialog" font-size="12" x="1362" y="907">
is_fullfilled() : int</text>
<text font-family="Dialog" font-size="12" x="1362" y="923">
init() : void</text>
<text font-family="Dialog" font-size="12" x="1362" y="939">
set_compare_value() : void</text>
<polyline fill="none" points="1550,830 1550,789" stroke="#000000" stroke-width="1"/>
<polygon fill="#ffffff" points="1550,789 1557,801 1543,801" stroke="#ffffff" stroke-width="1"/>
<polygon fill="none" points="1550,789 1557,801 1543,801" stroke="#000000" stroke-width="1"/>
<rect fill="#ffffff" height="69" stroke="#ffffff" stroke-width="1" width="133" x="1198" y="718"/>
<rect fill="none" height="69" stroke="#000000" stroke-width="1" width="133" x="1198" y="718"/>
<text font-family="Dialog" font-size="12" font-style="italic" x="1214" y="731">
control_action_t</text>
<rect fill="#000000" height="1" stroke="#000000" stroke-width="1" width="133" x="1198" y="741"/>
<rect fill="#000000" height="1" stroke="#000000" stroke-width="1" width="133" x="1198" y="762"/>
<text font-family="Dialog" font-size="12" font-style="italic" x="1202" y="776">
execute() : void</text>
<rect fill="#ffffff" height="69" stroke="#ffffff" stroke-width="1" width="174" x="1166" y="830"/>
<rect fill="none" height="69" stroke="#000000" stroke-width="1" width="174" x="1166" y="830"/>
<text font-family="Dialog" font-size="12" x="1178" y="843">
control_action_measure</text>
<rect fill="#000000" height="1" stroke="#000000" stroke-width="1" width="174" x="1166" y="853"/>
<rect fill="#000000" height="1" stroke="#000000" stroke-width="1" width="174" x="1166" y="874"/>
<text font-family="Dialog" font-size="12" x="1170" y="888">
execute() : void</text>
<polyline fill="none" points="1262,830 1262,786" stroke="#000000" stroke-width="1"/>
<polygon fill="#ffffff" points="1262,786 1269,798 1255,798" stroke="#ffffff" stroke-width="1"/>
<polygon fill="none" points="1262,786 1269,798 1255,798" stroke="#000000" stroke-width="1"/>
<polyline fill="none" points="1646,718 1646,618" stroke="#000000" stroke-width="1"/>
<polygon fill="#ffffff" points="1646,618 1651,628 1646,638 1641,628" stroke="#ffffff" stroke-width="1"/>
<polygon fill="none" points="1646,618 1651,628 1646,638 1641,628" stroke="#000000" stroke-width="1"/>
<text font-family="Dialog" font-size="12" x="1625" y="701">
1</text>
<text font-family="Dialog" font-size="12" x="1617" y="645">
0..1</text>
<polyline fill="none" points="1534,718 1534,618" stroke="#000000" stroke-width="1"/>
<polygon fill="#ffffff" points="1534,618 1539,628 1534,638 1529,628" stroke="#ffffff" stroke-width="1"/>
<polygon fill="none" points="1534,618 1539,628 1534,638 1529,628" stroke="#000000" stroke-width="1"/>
<text font-family="Dialog" font-size="12" x="1513" y="701">
1</text>
<text font-family="Dialog" font-size="12" x="1505" y="645">
0..1</text>
<polyline fill="none" points="1326,718 1326,686 1398,686 1398,618" stroke="#000000" stroke-width="1"/>
<polygon fill="#ffffff" points="1398,618 1403,628 1398,638 1393,628" stroke="#ffffff" stroke-width="1"/>
<polygon fill="none" points="1398,618 1403,628 1398,638 1393,628" stroke="#000000" stroke-width="1"/>
<text font-family="Dialog" font-size="12" x="1346" y="712">
1</text>
<text font-family="Dialog" font-size="12" x="1404" y="638">
0..1</text>
<rect fill="#ffffff" height="104" stroke="#ffffff" stroke-width="1" width="182" x="110" y="702"/>
<rect fill="none" height="104" stroke="#000000" stroke-width="1" width="182" x="110" y="702"/>
<text font-family="Dialog" font-size="12" font-style="italic" x="144" y="715">
control_protocol_t</text>
<rect fill="#000000" height="1" stroke="#000000" stroke-width="1" width="182" x="110" y="725"/>
<text font-family="Dialog" font-size="12" x="114" y="739">
param : void*</text>
<text font-family="Dialog" font-size="12" x="114" y="755">
*send_message : void</text>
<rect fill="#000000" height="1" stroke="#000000" stroke-width="1" width="182" x="110" y="765"/>
<text font-family="Dialog" font-size="12" font-style="italic" x="114" y="779">
parse() : void</text>
<text font-family="Dialog" font-size="12" x="114" y="795">
set_message_dest() : void</text>
<rect fill="#ffffff" height="248" stroke="#ffffff" stroke-width="1" width="280" x="54" y="830"/>
<rect fill="none" height="248" stroke="#000000" stroke-width="1" width="280" x="54" y="830"/>
<text font-family="Dialog" font-size="12" x="120" y="843">
control_protocol_ascii_t</text>
<rect fill="#000000" height="1" stroke="#000000" stroke-width="1" width="280" x="54" y="853"/>
<text font-family="Dialog" font-size="12" x="58" y="867">
start_char : unsigned char</text>
<text font-family="Dialog" font-size="12" x="58" y="883">
separator : unsigned char</text>
<text font-family="Dialog" font-size="12" x="58" y="899">
end_char : unsigned char</text>
<text font-family="Dialog" font-size="12" x="58" y="915">
out_select_char : unsigned char</text>
<text font-family="Dialog" font-size="12" x="58" y="931">
output : unsigned int</text>
<text font-family="Dialog" font-size="12" x="58" y="947">
state : int</text>
<text font-family="Dialog" font-size="12" x="58" y="963">
cur_value : unsigned int</text>
<text font-family="Dialog" font-size="12" x="58" y="979">
parsed_param_count : unsigned int</text>
<text font-family="Dialog" font-size="12" x="58" y="995">
parameter_values [8] : unsigned int</text>
<text font-family="Dialog" font-size="12" x="58" y="1011">
parsed_parameters : control_parameter_t</text>
<rect fill="#000000" height="1" stroke="#000000" stroke-width="1" width="280" x="54" y="1021"/>
<text font-family="Dialog" font-size="12" x="58" y="1035">
parse() : void</text>
<text font-family="Dialog" font-size="12" x="58" y="1051">
init() : void</text>
<text font-family="Dialog" font-size="12" x="58" y="1067">
set_special_chars() : void</text>
<polyline fill="none" points="182,830 182,805" stroke="#000000" stroke-width="1"/>
<polygon fill="#ffffff" points="182,805 189,817 175,817" stroke="#ffffff" stroke-width="1"/>
<polygon fill="none" points="182,805 189,817 175,817" stroke="#000000" stroke-width="1"/>
<polyline fill="none" points="190,653 190,702" stroke="#000000" stroke-width="1"/>
<polygon fill="#ffffff" points="190,653 195,663 190,673 185,663" stroke="#ffffff" stroke-width="1"/>
<polygon fill="none" points="190,653 195,663 190,673 185,663" stroke="#000000" stroke-width="1"/>
<text font-family="Dialog" font-size="12" x="196" y="680">
0..*</text>
<text font-family="Dialog" font-size="12" x="204" y="699">
1</text>
<polyline fill="none" points="1238,661 1238,718" stroke="#000000" stroke-width="1"/>
<polygon fill="#ffffff" points="1238,661 1243,671 1238,681 1233,671" stroke="#ffffff" stroke-width="1"/>
<polygon fill="none" points="1238,661 1243,671 1238,681 1233,671" stroke="#000000" stroke-width="1"/>
<text font-family="Dialog" font-size="12" x="1244" y="681">
0..1</text>
<text font-family="Dialog" font-size="12" x="1217" y="712">
1</text>
<rect fill="#ffffff" height="120" stroke="#ffffff" stroke-width="1" width="286" x="1606" y="830"/>
<rect fill="none" height="120" stroke="#000000" stroke-width="1" width="286" x="1606" y="830"/>
<text font-family="Dialog" font-size="12" x="1611" y="843">
datastream_condition_compare_long_float_t</text>
<rect fill="#000000" height="1" stroke="#000000" stroke-width="1" width="286" x="1606" y="853"/>
<text font-family="Dialog" font-size="12" x="1610" y="867">
compare_value : long</text>
<text font-family="Dialog" font-size="12" x="1610" y="883">
*compare_func : int</text>
<rect fill="#000000" height="1" stroke="#000000" stroke-width="1" width="286" x="1606" y="893"/>
<text font-family="Dialog" font-size="12" x="1610" y="907">
is_fullfilled() : int</text>
<text font-family="Dialog" font-size="12" x="1610" y="923">
init() : void</text>
<text font-family="Dialog" font-size="12" x="1610" y="939">
set_compare_value() : void</text>
<polyline fill="none" points="1654,830 1654,789" stroke="#000000" stroke-width="1"/>
<polygon fill="#ffffff" points="1654,789 1661,801 1647,801" stroke="#ffffff" stroke-width="1"/>
<polygon fill="none" points="1654,789 1661,801 1647,801" stroke="#000000" stroke-width="1"/>
</svg>
