<?xml version="1.0" encoding="utf-8" ?>
<!DOCTYPE svg PUBLIC "-//W3C//DTD SVG 1.1//EN" "http://www.w3.org/Graphics/SVG/1.1/DTD/svg11.dtd">
<svg height="1316" version="1.1" width="1759" xmlns="http://www.w3.org/2000/svg">
<rect fill="#ffffff" height="104" stroke="#ffffff" stroke-width="1" width="200" x="661" y="142"/>
<rect fill="none" height="104" stroke="#000000" stroke-width="1" width="200" x="661" y="142"/>
<text font-family="Dialog" font-size="12" x="720" y="155">
contol_port_t</text>
<rect fill="#000000" height="1" stroke="#000000" stroke-width="1" width="200" x="661" y="165"/>
<text font-family="Dialog" font-size="12" x="665" y="179">
parent : void*</text>
<rect fill="#000000" height="1" stroke="#000000" stroke-width="1" width="200" x="661" y="205"/>
<text font-family="Dialog" font-size="12" font-style="italic" x="665" y="219">
new_control_message() : void</text>
<rect fill="#ffffff" height="112" stroke="#ffffff" stroke-width="1" width="200" x="1181" y="142"/>
<rect fill="none" height="112" stroke="#000000" stroke-width="1" width="200" x="1181" y="142"/>
<text font-family="Dialog" font-size="12" x="1245" y="155">
data_port_t</text>
<rect fill="#000000" height="1" stroke="#000000" stroke-width="1" width="200" x="1181" y="165"/>
<text font-family="Dialog" font-size="12" x="1185" y="179">
parent : void*</text>
<rect fill="#000000" height="1" stroke="#000000" stroke-width="1" width="200" x="1181" y="209"/>
<text font-family="Dialog" font-size="12" font-style="italic" x="1185" y="223">
new_data() : void</text>
<rect fill="#ffffff" height="136" stroke="#ffffff" stroke-width="1" width="189" x="45" y="502"/>
<rect fill="none" height="136" stroke="#000000" stroke-width="1" width="189" x="45" y="502"/>
<text font-family="Dialog" font-size="12" x="105" y="515">
sink_uart_t</text>
<rect fill="#000000" height="1" stroke="#000000" stroke-width="1" width="189" x="45" y="525"/>
<text font-family="Dialog" font-size="12" x="49" y="539">
control_out_count : int</text>
<text font-family="Dialog" font-size="12" x="49" y="555">
uart_light : uart_light_regs_t*</text>
<rect fill="#000000" height="1" stroke="#000000" stroke-width="1" width="189" x="45" y="565"/>
<text font-family="Dialog" font-size="12" x="49" y="579">
update() : void</text>
<text font-family="Dialog" font-size="12" x="49" y="595">
init() : void</text>
<text font-family="Dialog" font-size="12" x="49" y="611">
add_control_out() : void</text>
<text font-family="Dialog" font-size="12" x="49" y="627">
get_data_in() : data_port_t*</text>
<polyline fill="none" points="221,502 221,430 221,438 221,390 1077,390 1077,286 1165,286 1165,238 1181,238" stroke="#000000" stroke-width="1"/>
<polygon fill="#000000" points="221,502 216,492 221,482 226,492" stroke="#000000" stroke-width="1"/>
<polygon fill="none" points="221,502 216,492 221,482 226,492" stroke="#000000" stroke-width="1"/>
<text font-family="Dialog" font-size="12" x="230" y="496">
0..1</text>
<text font-family="Dialog" font-size="12" x="1168" y="224">
1</text>
<polyline fill="none" points="205,502 205,358 565,358 565,214 661,214" stroke="#000000" stroke-width="1"/>
<polygon fill="#ffffff" points="205,502 200,492 205,482 210,492" stroke="#ffffff" stroke-width="1"/>
<polygon fill="none" points="205,502 200,492 205,482 210,492" stroke="#000000" stroke-width="1"/>
<text font-family="Dialog" font-size="12" x="211" y="464">
0..*</text>
<text font-family="Dialog" font-size="12" x="634" y="209">
0..8</text>
<rect fill="#ffffff" height="168" stroke="#ffffff" stroke-width="1" width="197" x="237" y="502"/>
<rect fill="none" height="168" stroke="#000000" stroke-width="1" width="197" x="237" y="502"/>
<text font-family="Dialog" font-size="12" x="290" y="515">
sink_sd_card_t</text>
<rect fill="#000000" height="1" stroke="#000000" stroke-width="1" width="197" x="237" y="525"/>
<text font-family="Dialog" font-size="12" x="241" y="539">
pdrv : BYTE</text>
<text font-family="Dialog" font-size="12" x="241" y="555">
status : DSTATUS</text>
<text font-family="Dialog" font-size="12" x="241" y="571">
fatFs : FATFS</text>
<text font-family="Dialog" font-size="12" x="241" y="587">
file : FIL</text>
<text font-family="Dialog" font-size="12" x="241" y="603">
sd_card_regs : sdcard_regs_t*</text>
<rect fill="#000000" height="1" stroke="#000000" stroke-width="1" width="197" x="237" y="613"/>
<text font-family="Dialog" font-size="12" x="241" y="627">
update() : void</text>
<text font-family="Dialog" font-size="12" x="241" y="643">
init() : void</text>
<text font-family="Dialog" font-size="12" x="241" y="659">
get_data_in() : data_port_t*</text>
<rect fill="#ffffff" height="104" stroke="#ffffff" stroke-width="1" width="155" x="61" y="222"/>
<rect fill="none" height="104" stroke="#000000" stroke-width="1" width="155" x="61" y="222"/>
<text font-family="Dialog" font-size="12" font-style="italic" x="103" y="235">
formatter_t</text>
<rect fill="#000000" height="1" stroke="#000000" stroke-width="1" width="155" x="61" y="245"/>
<text font-family="Dialog" font-size="12" x="65" y="259">
param : void*</text>
<text font-family="Dialog" font-size="12" x="65" y="275">
*write_byte : void</text>
<rect fill="#000000" height="1" stroke="#000000" stroke-width="1" width="155" x="61" y="285"/>
<text font-family="Dialog" font-size="12" font-style="italic" x="65" y="299">
format() : void</text>
<text font-family="Dialog" font-size="12" x="65" y="315">
set_write_dest() : void</text>
<rect fill="#ffffff" height="88" stroke="#ffffff" stroke-width="1" width="140" x="21" y="366"/>
<rect fill="none" height="88" stroke="#000000" stroke-width="1" width="140" x="21" y="366"/>
<text font-family="Dialog" font-size="12" x="33" y="379">
formatter_simple_t</text>
<rect fill="#000000" height="1" stroke="#000000" stroke-width="1" width="140" x="21" y="389"/>
<text font-family="Dialog" font-size="12" x="25" y="403">
count : int</text>
<rect fill="#000000" height="1" stroke="#000000" stroke-width="1" width="140" x="21" y="413"/>
<text font-family="Dialog" font-size="12" x="25" y="427">
format() : void</text>
<text font-family="Dialog" font-size="12" x="25" y="443">
init() : void</text>
<polyline fill="none" points="89,366 89,325" stroke="#000000" stroke-width="1"/>
<polygon fill="#ffffff" points="89,325 96,337 82,337" stroke="#ffffff" stroke-width="1"/>
<polygon fill="none" points="89,325 96,337 82,337" stroke="#000000" stroke-width="1"/>
<polyline fill="none" points="173,502 173,325" stroke="#000000" stroke-width="1"/>
<polygon fill="#ffffff" points="173,502 168,492 173,482 178,492" stroke="#ffffff" stroke-width="1"/>
<polygon fill="none" points="173,502 168,492 173,482 178,492" stroke="#000000" stroke-width="1"/>
<text font-family="Dialog" font-size="12" x="145" y="485">
0..*</text>
<text font-family="Dialog" font-size="12" x="152" y="352">
1</text>
<polyline fill="none" points="293,502 293,310 215,310" stroke="#000000" stroke-width="1"/>
<polygon fill="#ffffff" points="293,502 288,492 293,482 298,492" stroke="#ffffff" stroke-width="1"/>
<polygon fill="none" points="293,502 288,492 293,482 298,492" stroke="#000000" stroke-width="1"/>
<text font-family="Dialog" font-size="12" x="265" y="485">
0..*</text>
<text font-family="Dialog" font-size="12" x="226" y="305">
1</text>
<rect fill="#ffffff" height="85" stroke="#ffffff" stroke-width="1" width="152" x="941" y="14"/>
<rect fill="none" height="85" stroke="#000000" stroke-width="1" width="152" x="941" y="14"/>
<text font-family="Dialog" font-size="12" font-style="italic" x="953" y="27">
datastream_object_t</text>
<rect fill="#000000" height="1" stroke="#000000" stroke-width="1" width="152" x="941" y="37"/>
<rect fill="#000000" height="1" stroke="#000000" stroke-width="1" width="152" x="941" y="66"/>
<text font-family="Dialog" font-size="12" x="945" y="80">
update() : void</text>
<rect fill="#ffffff" height="112" stroke="#ffffff" stroke-width="1" width="263" x="877" y="142"/>
<rect fill="none" height="112" stroke="#000000" stroke-width="1" width="263" x="877" y="142"/>
<text font-family="Dialog" font-size="12" font-style="italic" x="943" y="155">
datastream_source_t</text>
<rect fill="#000000" height="1" stroke="#000000" stroke-width="1" width="263" x="877" y="165"/>
<text font-family="Dialog" font-size="12" x="881" y="179">
id : unsigned int</text>
<rect fill="#000000" height="1" stroke="#000000" stroke-width="1" width="263" x="877" y="193"/>
<text font-family="Dialog" font-size="12" font-style="italic" x="881" y="207">
send_data() : void</text>
<text font-family="Dialog" font-size="12" x="881" y="223">
init() : void</text>
<text font-family="Dialog" font-size="12" x="881" y="239">
generate_software_timestamp() : void</text>
<polyline fill="none" points="1013,142 1013,98" stroke="#000000" stroke-width="1"/>
<polygon fill="#ffffff" points="1013,98 1020,110 1006,110" stroke="#ffffff" stroke-width="1"/>
<polygon fill="none" points="1013,98 1020,110 1006,110" stroke="#000000" stroke-width="1"/>
<polyline fill="none" points="309,502 309,78 941,78" stroke="#000000" stroke-width="1"/>
<polygon fill="#ffffff" points="941,78 929,85 929,71" stroke="#ffffff" stroke-width="1"/>
<polygon fill="none" points="941,78 929,85 929,71" stroke="#000000" stroke-width="1"/>
<rect fill="#ffffff" height="120" stroke="#ffffff" stroke-width="1" width="211" x="669" y="502"/>
<rect fill="none" height="120" stroke="#000000" stroke-width="1" width="211" x="669" y="502"/>
<text font-family="Dialog" font-size="12" x="719" y="515">
device_uart_raw_t</text>
<rect fill="#000000" height="1" stroke="#000000" stroke-width="1" width="211" x="669" y="525"/>
<text font-family="Dialog" font-size="12" x="673" y="539">
uart_light : uart_light_regs_t*</text>
<rect fill="#000000" height="1" stroke="#000000" stroke-width="1" width="211" x="669" y="549"/>
<text font-family="Dialog" font-size="12" x="673" y="563">
send_data() : void</text>
<text font-family="Dialog" font-size="12" x="673" y="579">
init() : void</text>
<text font-family="Dialog" font-size="12" x="673" y="595">
set_data_out() : void</text>
<text font-family="Dialog" font-size="12" x="673" y="611">
get_control_in() : control_port_t*</text>
<polyline fill="none" points="189,502 189,342 237,342 237,46 941,46" stroke="#000000" stroke-width="1"/>
<polygon fill="#ffffff" points="941,46 929,53 929,39" stroke="#ffffff" stroke-width="1"/>
<polygon fill="none" points="941,46 929,53 929,39" stroke="#000000" stroke-width="1"/>
<polyline fill="none" points="765,502 765,454 1005,454 1005,253" stroke="#000000" stroke-width="1"/>
<polygon fill="#ffffff" points="1005,253 1012,265 998,265" stroke="#ffffff" stroke-width="1"/>
<polygon fill="none" points="1005,253 1012,265 998,265" stroke="#000000" stroke-width="1"/>
<polyline fill="none" points="701,502 701,245" stroke="#000000" stroke-width="1"/>
<polygon fill="#000000" points="701,502 696,492 701,482 706,492" stroke="#000000" stroke-width="1"/>
<polygon fill="none" points="701,502 696,492 701,482 706,492" stroke="#000000" stroke-width="1"/>
<text font-family="Dialog" font-size="12" x="672" y="485">
0..1</text>
<text font-family="Dialog" font-size="12" x="680" y="263">
1</text>
<polyline fill="none" points="733,502 733,430 1269,430 1269,253" stroke="#000000" stroke-width="1"/>
<polygon fill="#ffffff" points="733,502 728,492 733,482 738,492" stroke="#ffffff" stroke-width="1"/>
<polygon fill="none" points="733,502 728,492 733,482 738,492" stroke="#000000" stroke-width="1"/>
<text font-family="Dialog" font-size="12" x="705" y="485">
0..*</text>
<text font-family="Dialog" font-size="12" x="1274" y="276">
0..1</text>
<polyline fill="none" points="365,502 365,414 1245,414 1245,253" stroke="#000000" stroke-width="1"/>
<polygon fill="#000000" points="365,502 360,492 365,482 370,492" stroke="#000000" stroke-width="1"/>
<polygon fill="none" points="365,502 360,492 365,482 370,492" stroke="#000000" stroke-width="1"/>
<text font-family="Dialog" font-size="12" x="336" y="485">
0..1</text>
<text font-family="Dialog" font-size="12" x="1258" y="280">
1</text>
<rect fill="#ffffff" height="312" stroke="#ffffff" stroke-width="1" width="211" x="933" y="502"/>
<rect fill="none" height="312" stroke="#000000" stroke-width="1" width="211" x="933" y="502"/>
<text font-family="Dialog" font-size="12" x="992" y="515">
device_hct99_t</text>
<rect fill="#000000" height="1" stroke="#000000" stroke-width="1" width="211" x="933" y="525"/>
<text font-family="Dialog" font-size="12" x="937" y="539">
expected_byte : int</text>
<text font-family="Dialog" font-size="12" x="937" y="555">
value : simple_float_b10_t</text>
<text font-family="Dialog" font-size="12" x="937" y="571">
err_code : unsigned char</text>
<text font-family="Dialog" font-size="12" x="937" y="587">
val_name : char*</text>
<text font-family="Dialog" font-size="12" x="937" y="603">
err_name : char*</text>
<text font-family="Dialog" font-size="12" x="937" y="619">
color_alternative : char</text>
<text font-family="Dialog" font-size="12" x="937" y="635">
uart_light : uart_light_regs_t*</text>
<text font-family="Dialog" font-size="12" x="937" y="651">
command_fifo[] : command</text>
<text font-family="Dialog" font-size="12" x="937" y="667">
command_fifo_elements : int</text>
<text font-family="Dialog" font-size="12" x="937" y="683">
command_fifo_top : int</text>
<rect fill="#000000" height="1" stroke="#000000" stroke-width="1" width="211" x="933" y="693"/>
<text font-family="Dialog" font-size="12" x="937" y="707">
send_data() : void</text>
<text font-family="Dialog" font-size="12" x="937" y="723">
init() : void</text>
<text font-family="Dialog" font-size="12" x="937" y="739">
set_data_out() : void</text>
<text font-family="Dialog" font-size="12" x="937" y="755">
set_error_out() : void</text>
<text font-family="Dialog" font-size="12" x="937" y="771">
set_misc_out() : void</text>
<text font-family="Dialog" font-size="12" x="937" y="787">
get_control_in() : control_port_t*</text>
<text font-family="Dialog" font-size="12" x="937" y="803">
execute_command() : void</text>
<polyline fill="none" points="1045,502 1045,253" stroke="#000000" stroke-width="1"/>
<polygon fill="#ffffff" points="1045,253 1052,265 1038,265" stroke="#ffffff" stroke-width="1"/>
<polygon fill="none" points="1045,253 1052,265 1038,265" stroke="#000000" stroke-width="1"/>
<polyline fill="none" points="973,502 973,358 773,358 773,245" stroke="#000000" stroke-width="1"/>
<polygon fill="#000000" points="973,502 968,492 973,482 978,492" stroke="#000000" stroke-width="1"/>
<polygon fill="none" points="973,502 968,492 973,482 978,492" stroke="#000000" stroke-width="1"/>
<text font-family="Dialog" font-size="12" x="941" y="486">
0..1</text>
<text font-family="Dialog" font-size="12" x="752" y="272">
1</text>
<polyline fill="none" points="1101,502 1101,398 1205,398 1205,253" stroke="#000000" stroke-width="1"/>
<polygon fill="#ffffff" points="1101,502 1096,492 1101,482 1106,492" stroke="#ffffff" stroke-width="1"/>
<polygon fill="none" points="1101,502 1096,492 1101,482 1106,492" stroke="#000000" stroke-width="1"/>
<text font-family="Dialog" font-size="12" x="1072" y="491">
0..*</text>
<text font-family="Dialog" font-size="12" x="1210" y="274">
0..3</text>
<rect fill="#ffffff" height="96" stroke="#ffffff" stroke-width="1" width="211" x="485" y="702"/>
<rect fill="none" height="96" stroke="#000000" stroke-width="1" width="211" x="485" y="702"/>
<text font-family="Dialog" font-size="12" x="548" y="715">
device_pwm_t</text>
<rect fill="#000000" height="1" stroke="#000000" stroke-width="1" width="211" x="485" y="725"/>
<text font-family="Dialog" font-size="12" x="489" y="739">
pwm : pwm_regs_t*</text>
<rect fill="#000000" height="1" stroke="#000000" stroke-width="1" width="211" x="485" y="753"/>
<text font-family="Dialog" font-size="12" x="489" y="767">
init() : void</text>
<text font-family="Dialog" font-size="12" x="489" y="783">
get_control_in() : control_port_t*</text>
<polyline fill="none" points="661,702 661,245" stroke="#000000" stroke-width="1"/>
<polygon fill="#000000" points="661,702 656,692 661,682 666,692" stroke="#000000" stroke-width="1"/>
<polygon fill="none" points="661,702 656,692 661,682 666,692" stroke="#000000" stroke-width="1"/>
<text font-family="Dialog" font-size="12" x="632" y="685">
0..1</text>
<text font-family="Dialog" font-size="12" x="640" y="262">
1</text>
<rect fill="#ffffff" height="112" stroke="#ffffff" stroke-width="1" width="211" x="349" y="142"/>
<rect fill="none" height="112" stroke="#000000" stroke-width="1" width="211" x="349" y="142"/>
<text font-family="Dialog" font-size="12" x="389" y="155">
dm_splitter_control_t</text>
<rect fill="#000000" height="1" stroke="#000000" stroke-width="1" width="211" x="349" y="165"/>
<text font-family="Dialog" font-size="12" x="353" y="179">
target_count : int</text>
<rect fill="#000000" height="1" stroke="#000000" stroke-width="1" width="211" x="349" y="193"/>
<text font-family="Dialog" font-size="12" x="353" y="207">
init() : void</text>
<text font-family="Dialog" font-size="12" x="353" y="223">
add_control_out() : int</text>
<text font-family="Dialog" font-size="12" x="353" y="239">
get_control_in() : control_port_t*</text>
<polyline fill="none" points="559,158 661,158" stroke="#000000" stroke-width="1"/>
<polygon fill="#000000" points="559,158 569,153 579,158 569,163" stroke="#000000" stroke-width="1"/>
<polygon fill="none" points="559,158 569,153 579,158 569,163" stroke="#000000" stroke-width="1"/>
<text font-family="Dialog" font-size="12" x="562" y="153">
0..1</text>
<text font-family="Dialog" font-size="12" x="642" y="153">
1</text>
<polyline fill="none" points="559,190 661,190" stroke="#000000" stroke-width="1"/>
<polygon fill="#ffffff" points="559,190 569,185 579,190 569,195" stroke="#ffffff" stroke-width="1"/>
<polygon fill="none" points="559,190 569,185 579,190 569,195" stroke="#000000" stroke-width="1"/>
<text font-family="Dialog" font-size="12" x="563" y="185">
0..*</text>
<text font-family="Dialog" font-size="12" x="634" y="185">
0..8</text>
<rect fill="#ffffff" height="104" stroke="#ffffff" stroke-width="1" width="182" x="1445" y="142"/>
<rect fill="none" height="104" stroke="#000000" stroke-width="1" width="182" x="1445" y="142"/>
<text font-family="Dialog" font-size="12" x="1478" y="155">
dm_splitter_data_t</text>
<rect fill="#000000" height="1" stroke="#000000" stroke-width="1" width="182" x="1445" y="165"/>
<text font-family="Dialog" font-size="12" x="1449" y="179">
target_count : int</text>
<rect fill="#000000" height="1" stroke="#000000" stroke-width="1" width="182" x="1445" y="189"/>
<text font-family="Dialog" font-size="12" x="1449" y="203">
init() : void</text>
<text font-family="Dialog" font-size="12" x="1449" y="219">
add_data_out() : void</text>
<text font-family="Dialog" font-size="12" x="1449" y="235">
get_data_in() : data_port_t*</text>
<polyline fill="none" points="1445,158 1380,158" stroke="#000000" stroke-width="1"/>
<polygon fill="#000000" points="1445,158 1435,163 1425,158 1435,153" stroke="#000000" stroke-width="1"/>
<polygon fill="none" points="1445,158 1435,163 1425,158 1435,153" stroke="#000000" stroke-width="1"/>
<text font-family="Dialog" font-size="12" x="1418" y="153">
0..1</text>
<text font-family="Dialog" font-size="12" x="1391" y="153">
1</text>
<polyline fill="none" points="1445,190 1380,190" stroke="#000000" stroke-width="1"/>
<polygon fill="#ffffff" points="1445,190 1435,195 1425,190 1435,185" stroke="#ffffff" stroke-width="1"/>
<polygon fill="none" points="1445,190 1435,195 1425,190 1435,185" stroke="#000000" stroke-width="1"/>
<text font-family="Dialog" font-size="12" x="1419" y="185">
0..*</text>
<text font-family="Dialog" font-size="12" x="1383" y="185">
0..8</text>
<rect fill="#ffffff" height="152" stroke="#ffffff" stroke-width="1" width="181" x="1149" y="502"/>
<rect fill="none" height="152" stroke="#000000" stroke-width="1" width="181" x="1149" y="502"/>
<text font-family="Dialog" font-size="12" x="1205" y="515">
dm_timer_t</text>
<rect fill="#000000" height="1" stroke="#000000" stroke-width="1" width="181" x="1149" y="525"/>
<text font-family="Dialog" font-size="12" x="1153" y="539">
timer : timer_regs_t*</text>
<text font-family="Dialog" font-size="12" x="1153" y="555">
compare : compare_regs_t*</text>
<rect fill="#000000" height="1" stroke="#000000" stroke-width="1" width="181" x="1149" y="565"/>
<text font-family="Dialog" font-size="12" x="1153" y="579">
update() : void</text>
<text font-family="Dialog" font-size="12" x="1153" y="595">
init() : void</text>
<text font-family="Dialog" font-size="12" x="1153" y="611">
set_control_out() : void</text>
<text font-family="Dialog" font-size="12" x="1153" y="627">
set_interval() : void</text>
<text font-family="Dialog" font-size="12" x="1153" y="643">
set_control_action() : void</text>
<polyline fill="none" points="1173,502 1173,462 1157,462 1157,126 1053,126 1053,98" stroke="#000000" stroke-width="1"/>
<polygon fill="#ffffff" points="1053,98 1060,110 1046,110" stroke="#ffffff" stroke-width="1"/>
<polygon fill="none" points="1053,98 1060,110 1046,110" stroke="#000000" stroke-width="1"/>
<polyline fill="none" points="1189,502 1189,342 733,342 733,245" stroke="#000000" stroke-width="1"/>
<polygon fill="#ffffff" points="1189,502 1184,492 1189,482 1194,492" stroke="#ffffff" stroke-width="1"/>
<polygon fill="none" points="1189,502 1184,492 1189,482 1194,492" stroke="#000000" stroke-width="1"/>
<text font-family="Dialog" font-size="12" x="1196" y="491">
0..*</text>
<text font-family="Dialog" font-size="12" x="707" y="298">
0..1</text>
<rect fill="#ffffff" height="133" stroke="#ffffff" stroke-width="1" width="181" x="1333" y="502"/>
<rect fill="none" height="133" stroke="#000000" stroke-width="1" width="181" x="1333" y="502"/>
<text font-family="Dialog" font-size="12" x="1384" y="515">
dm_trigger_t</text>
<rect fill="#000000" height="1" stroke="#000000" stroke-width="1" width="181" x="1333" y="525"/>
<rect fill="#000000" height="1" stroke="#000000" stroke-width="1" width="181" x="1333" y="546"/>
<text font-family="Dialog" font-size="12" x="1337" y="560">
init() : void</text>
<text font-family="Dialog" font-size="12" x="1337" y="576">
set_control_out() : void</text>
<text font-family="Dialog" font-size="12" x="1337" y="592">
get_data_in() : data_port_t*</text>
<text font-family="Dialog" font-size="12" x="1337" y="608">
set_condition() : void</text>
<text font-family="Dialog" font-size="12" x="1337" y="624">
set_control_action() : void</text>
<polyline fill="none" points="1373,502 1373,326 805,326 805,245" stroke="#000000" stroke-width="1"/>
<polygon fill="#ffffff" points="1373,502 1368,492 1373,482 1378,492" stroke="#ffffff" stroke-width="1"/>
<polygon fill="none" points="1373,502 1368,492 1373,482 1378,492" stroke="#000000" stroke-width="1"/>
<text font-family="Dialog" font-size="12" x="1345" y="485">
0..*</text>
<text font-family="Dialog" font-size="12" x="776" y="272">
0..1</text>
<polyline fill="none" points="1405,502 1405,318 1301,318 1301,253" stroke="#000000" stroke-width="1"/>
<polygon fill="#000000" points="1405,502 1400,492 1405,482 1410,492" stroke="#000000" stroke-width="1"/>
<polygon fill="none" points="1405,502 1400,492 1405,482 1410,492" stroke="#000000" stroke-width="1"/>
<text font-family="Dialog" font-size="12" x="1414" y="492">
0..1</text>
<text font-family="Dialog" font-size="12" x="1315" y="276">
1</text>
<rect fill="#ffffff" height="117" stroke="#ffffff" stroke-width="1" width="173" x="1517" y="502"/>
<rect fill="none" height="117" stroke="#000000" stroke-width="1" width="173" x="1517" y="502"/>
<text font-family="Dialog" font-size="12" x="1571" y="515">
dm_filter_t</text>
<rect fill="#000000" height="1" stroke="#000000" stroke-width="1" width="173" x="1517" y="525"/>
<rect fill="#000000" height="1" stroke="#000000" stroke-width="1" width="173" x="1517" y="546"/>
<text font-family="Dialog" font-size="12" x="1521" y="560">
init() : void</text>
<text font-family="Dialog" font-size="12" x="1521" y="576">
set_data_out() : void</text>
<text font-family="Dialog" font-size="12" x="1521" y="592">
get_data_in() : data_port_t*</text>
<text font-family="Dialog" font-size="12" x="1521" y="608">
set_condition() : void</text>
<polyline fill="none" points="1565,502 1565,302 1325,302 1325,253" stroke="#000000" stroke-width="1"/>
<polygon fill="#ffffff" points="1565,502 1560,492 1565,482 1570,492" stroke="#ffffff" stroke-width="1"/>
<polygon fill="none" points="1565,502 1560,492 1565,482 1570,492" stroke="#000000" stroke-width="1"/>
<text font-family="Dialog" font-size="12" x="1537" y="485">
0..*</text>
<text font-family="Dialog" font-size="12" x="1331" y="278">
0..1</text>
<polyline fill="none" points="1613,502 1613,286 1357,286 1357,253" stroke="#000000" stroke-width="1"/>
<polygon fill="#000000" points="1613,502 1608,492 1613,482 1618,492" stroke="#000000" stroke-width="1"/>
<polygon fill="none" points="1613,502 1608,492 1613,482 1618,492" stroke="#000000" stroke-width="1"/>
<text font-family="Dialog" font-size="12" x="1620" y="487">
0..1</text>
<text font-family="Dialog" font-size="12" x="1422" y="279">
1</text>
<rect fill="#ffffff" height="72" stroke="#ffffff" stroke-width="1" width="171" x="1445" y="710"/>
<rect fill="none" height="72" stroke="#000000" stroke-width="1" width="171" x="1445" y="710"/>
<text font-family="Dialog" font-size="12" font-style="italic" x="1457" y="723">
datastream_condition_t</text>
<rect fill="#000000" height="1" stroke="#000000" stroke-width="1" width="171" x="1445" y="733"/>
<rect fill="#000000" height="1" stroke="#000000" stroke-width="1" width="171" x="1445" y="755"/>
<text font-family="Dialog" font-size="12" font-style="italic" x="1449" y="769">
is_fullfilled() : int</text>
<rect fill="#ffffff" height="136" stroke="#ffffff" stroke-width="1" width="255" x="1077" y="1022"/>
<rect fill="none" height="136" stroke="#000000" stroke-width="1" width="255" x="1077" y="1022"/>
<text font-family="Dialog" font-size="12" x="1089" y="1035">
datastream_condition_compare_int_t</text>
<rect fill="#000000" height="1" stroke="#000000" stroke-width="1" width="255" x="1077" y="1045"/>
<text font-family="Dialog" font-size="12" x="1081" y="1059">
compare_value : int</text>
<text font-family="Dialog" font-size="12" x="1081" y="1075">
*compare_func : int</text>
<rect fill="#000000" height="1" stroke="#000000" stroke-width="1" width="255" x="1077" y="1093"/>
<text font-family="Dialog" font-size="12" x="1081" y="1107">
is_fullfilled() : int</text>
<text font-family="Dialog" font-size="12" x="1081" y="1123">
init() : void</text>
<text font-family="Dialog" font-size="12" x="1081" y="1139">
set_compare_value() : void</text>
<polyline fill="none" points="1317,1022 1317,814 1469,814 1469,781" stroke="#000000" stroke-width="1"/>
<polygon fill="#ffffff" points="1469,781 1476,793 1462,793" stroke="#ffffff" stroke-width="1"/>
<polygon fill="none" points="1469,781 1476,793 1462,793" stroke="#000000" stroke-width="1"/>
<rect fill="#ffffff" height="69" stroke="#ffffff" stroke-width="1" width="136" x="1157" y="710"/>
<rect fill="none" height="69" stroke="#000000" stroke-width="1" width="136" x="1157" y="710"/>
<text font-family="Dialog" font-size="12" font-style="italic" x="1175" y="723">
control_action_t</text>
<rect fill="#000000" height="1" stroke="#000000" stroke-width="1" width="136" x="1157" y="733"/>
<rect fill="#000000" height="1" stroke="#000000" stroke-width="1" width="136" x="1157" y="754"/>
<text font-family="Dialog" font-size="12" font-style="italic" x="1161" y="768">
execute() : void</text>
<rect fill="#ffffff" height="168" stroke="#ffffff" stroke-width="1" width="282" x="1005" y="838"/>
<rect fill="none" height="168" stroke="#000000" stroke-width="1" width="282" x="1005" y="838"/>
<text font-family="Dialog" font-size="12" x="1073" y="851">
control_action_simple_t</text>
<rect fill="#000000" height="1" stroke="#000000" stroke-width="1" width="282" x="1005" y="861"/>
<text font-family="Dialog" font-size="12" x="1009" y="875">
configured_commands : unsigned int</text>
<text font-family="Dialog" font-size="12" x="1009" y="891">
configured_parameters [8] : unsigned int</text>
<text font-family="Dialog" font-size="12" x="1009" y="907">
command_list [8][5] : control_parameter_t</text>
<rect fill="#000000" height="1" stroke="#000000" stroke-width="1" width="282" x="1005" y="917"/>
<text font-family="Dialog" font-size="12" x="1009" y="931">
execute() : void</text>
<text font-family="Dialog" font-size="12" x="1009" y="947">
init() : void</text>
<text font-family="Dialog" font-size="12" x="1009" y="963">
add_command() : void</text>
<text font-family="Dialog" font-size="12" x="1009" y="979">
add_parameter() : void</text>
<text font-family="Dialog" font-size="12" x="1009" y="995">
add_parameter_exp() : void</text>
<polyline fill="none" points="1221,838 1221,778" stroke="#000000" stroke-width="1"/>
<polygon fill="#ffffff" points="1221,778 1228,790 1214,790" stroke="#ffffff" stroke-width="1"/>
<polygon fill="none" points="1221,778 1228,790 1214,790" stroke="#000000" stroke-width="1"/>
<polyline fill="none" points="1597,710 1597,618" stroke="#000000" stroke-width="1"/>
<polygon fill="#ffffff" points="1597,618 1602,628 1597,638 1592,628" stroke="#ffffff" stroke-width="1"/>
<polygon fill="none" points="1597,618 1602,628 1597,638 1592,628" stroke="#000000" stroke-width="1"/>
<text font-family="Dialog" font-size="12" x="1576" y="693">
1</text>
<text font-family="Dialog" font-size="12" x="1568" y="645">
0..1</text>
<polyline fill="none" points="1469,710 1469,634" stroke="#000000" stroke-width="1"/>
<polygon fill="#ffffff" points="1469,634 1474,644 1469,654 1464,644" stroke="#ffffff" stroke-width="1"/>
<polygon fill="none" points="1469,634 1474,644 1469,654 1464,644" stroke="#000000" stroke-width="1"/>
<text font-family="Dialog" font-size="12" x="1483" y="698">
1</text>
<text font-family="Dialog" font-size="12" x="1440" y="661">
0..1</text>
<polyline fill="none" points="1277,710 1277,686 1357,686 1357,634" stroke="#000000" stroke-width="1"/>
<polygon fill="#ffffff" points="1357,634 1362,644 1357,654 1352,644" stroke="#ffffff" stroke-width="1"/>
<polygon fill="none" points="1357,634 1362,644 1357,654 1352,644" stroke="#000000" stroke-width="1"/>
<text font-family="Dialog" font-size="12" x="1292" y="707">
1</text>
<text font-family="Dialog" font-size="12" x="1363" y="654">
0..1</text>
<rect fill="#ffffff" height="104" stroke="#ffffff" stroke-width="1" width="182" x="61" y="702"/>
<rect fill="none" height="104" stroke="#000000" stroke-width="1" width="182" x="61" y="702"/>
<text font-family="Dialog" font-size="12" font-style="italic" x="95" y="715">
control_protocol_t</text>
<rect fill="#000000" height="1" stroke="#000000" stroke-width="1" width="182" x="61" y="725"/>
<text font-family="Dialog" font-size="12" x="65" y="739">
param : void*</text>
<text font-family="Dialog" font-size="12" x="65" y="755">
*send_message : void</text>
<rect fill="#000000" height="1" stroke="#000000" stroke-width="1" width="182" x="61" y="765"/>
<text font-family="Dialog" font-size="12" font-style="italic" x="65" y="779">
parse() : void</text>
<text font-family="Dialog" font-size="12" x="65" y="795">
set_message_dest() : void</text>
<rect fill="#ffffff" height="232" stroke="#ffffff" stroke-width="1" width="270" x="21" y="846"/>
<rect fill="none" height="232" stroke="#000000" stroke-width="1" width="270" x="21" y="846"/>
<text font-family="Dialog" font-size="12" x="82" y="859">
control_protocol_ascii_t</text>
<rect fill="#000000" height="1" stroke="#000000" stroke-width="1" width="270" x="21" y="869"/>
<text font-family="Dialog" font-size="12" x="25" y="883">
start_char : unsigned char</text>
<text font-family="Dialog" font-size="12" x="25" y="899">
separator : unsigned char</text>
<text font-family="Dialog" font-size="12" x="25" y="915">
end_char : unsigned char</text>
<text font-family="Dialog" font-size="12" x="25" y="931">
out_select_char : unsigned char</text>
<text font-family="Dialog" font-size="12" x="25" y="947">
output : unsigned int</text>
<text font-family="Dialog" font-size="12" x="25" y="963">
state : int</text>
<text font-family="Dialog" font-size="12" x="25" y="979">
cur_value : unsigned int</text>
<text font-family="Dialog" font-size="12" x="25" y="995">
parsed_param_count : unsigned int</text>
<text font-family="Dialog" font-size="12" x="25" y="1011">
parsed_parameters : control_parameter_t</text>
<rect fill="#000000" height="1" stroke="#000000" stroke-width="1" width="270" x="21" y="1021"/>
<text font-family="Dialog" font-size="12" x="25" y="1035">
parse() : void</text>
<text font-family="Dialog" font-size="12" x="25" y="1051">
init() : void</text>
<text font-family="Dialog" font-size="12" x="25" y="1067">
set_special_chars() : void</text>
<polyline fill="none" points="133,846 133,805" stroke="#000000" stroke-width="1"/>
<polygon fill="#ffffff" points="133,805 140,817 126,817" stroke="#ffffff" stroke-width="1"/>
<polygon fill="none" points="133,805 140,817 126,817" stroke="#000000" stroke-width="1"/>
<polyline fill="none" points="141,637 141,702" stroke="#000000" stroke-width="1"/>
<polygon fill="#ffffff" points="141,637 146,647 141,657 136,647" stroke="#ffffff" stroke-width="1"/>
<polygon fill="none" points="141,637 146,647 141,657 136,647" stroke="#000000" stroke-width="1"/>
<text font-family="Dialog" font-size="12" x="147" y="664">
0..*</text>
<text font-family="Dialog" font-size="12" x="155" y="699">
1</text>
<polyline fill="none" points="1189,653 1189,710" stroke="#000000" stroke-width="1"/>
<polygon fill="#ffffff" points="1189,653 1194,663 1189,673 1184,663" stroke="#ffffff" stroke-width="1"/>
<polygon fill="none" points="1189,653 1194,663 1189,673 1184,663" stroke="#000000" stroke-width="1"/>
<text font-family="Dialog" font-size="12" x="1195" y="673">
0..1</text>
<text font-family="Dialog" font-size="12" x="1168" y="704">
1</text>
<rect fill="#ffffff" height="120" stroke="#ffffff" stroke-width="1" width="266" x="1085" y="1182"/>
<rect fill="none" height="120" stroke="#000000" stroke-width="1" width="266" x="1085" y="1182"/>
<text font-family="Dialog" font-size="12" x="1097" y="1195">
datastream_condition_compare_long_t</text>
<rect fill="#000000" height="1" stroke="#000000" stroke-width="1" width="266" x="1085" y="1205"/>
<text font-family="Dialog" font-size="12" x="1089" y="1219">
compare_value : long</text>
<text font-family="Dialog" font-size="12" x="1089" y="1235">
*compare_func : int</text>
<rect fill="#000000" height="1" stroke="#000000" stroke-width="1" width="266" x="1085" y="1245"/>
<text font-family="Dialog" font-size="12" x="1089" y="1259">
is_fullfilled() : int</text>
<text font-family="Dialog" font-size="12" x="1089" y="1275">
init() : void</text>
<text font-family="Dialog" font-size="12" x="1089" y="1291">
set_compare_value() : void</text>
<polyline fill="none" points="1349,1182 1349,894 1509,894 1509,781" stroke="#000000" stroke-width="1"/>
<polygon fill="#ffffff" points="1509,781 1516,793 1502,793" stroke="#ffffff" stroke-width="1"/>
<polygon fill="none" points="1509,781 1516,793 1502,793" stroke="#000000" stroke-width="1"/>
<rect fill="#ffffff" height="120" stroke="#ffffff" stroke-width="1" width="267" x="1365" y="950"/>
<rect fill="none" height="120" stroke="#000000" stroke-width="1" width="267" x="1365" y="950"/>
<text font-family="Dialog" font-size="12" x="1377" y="963">
datastream_condition_compare_float_t</text>
<rect fill="#000000" height="1" stroke="#000000" stroke-width="1" width="267" x="1365" y="973"/>
<text font-family="Dialog" font-size="12" x="1369" y="987">
compare_value : simple_float_b10_t</text>
<text font-family="Dialog" font-size="12" x="1369" y="1003">
*compare_func : int</text>
<rect fill="#000000" height="1" stroke="#000000" stroke-width="1" width="267" x="1365" y="1013"/>
<text font-family="Dialog" font-size="12" x="1369" y="1027">
is_fullfilled() : int</text>
<text font-family="Dialog" font-size="12" x="1369" y="1043">
init() : void</text>
<text font-family="Dialog" font-size="12" x="1369" y="1059">
set_compare_value() : void</text>
<polyline fill="none" points="1549,950 1549,781" stroke="#000000" stroke-width="1"/>
<polygon fill="#ffffff" points="1549,781 1556,793 1542,793" stroke="#ffffff" stroke-width="1"/>
<polygon fill="none" points="1549,781 1556,793 1542,793" stroke="#000000" stroke-width="1"/>
<rect fill="#ffffff" height="104" stroke="#ffffff" stroke-width="1" width="297" x="1373" y="1102"/>
<rect fill="none" height="104" stroke="#000000" stroke-width="1" width="297" x="1373" y="1102"/>
<text font-family="Dialog" font-size="12" x="1385" y="1115">
datastream_condition_compare_val_name_t</text>
<rect fill="#000000" height="1" stroke="#000000" stroke-width="1" width="297" x="1373" y="1125"/>
<text font-family="Dialog" font-size="12" x="1377" y="1139">
compare_value : char*</text>
<rect fill="#000000" height="1" stroke="#000000" stroke-width="1" width="297" x="1373" y="1149"/>
<text font-family="Dialog" font-size="12" x="1377" y="1163">
is_fullfilled() : int</text>
<text font-family="Dialog" font-size="12" x="1377" y="1179">
init() : void</text>
<text font-family="Dialog" font-size="12" x="1377" y="1195">
set_compare_value() : void</text>
<polyline fill="none" points="1653,1102 1653,894 1589,894 1589,781" stroke="#000000" stroke-width="1"/>
<polygon fill="#ffffff" points="1589,781 1596,793 1582,793" stroke="#ffffff" stroke-width="1"/>
<polygon fill="none" points="1589,781 1596,793 1582,793" stroke="#000000" stroke-width="1"/>
<rect fill="#ffffff" height="152" stroke="#ffffff" stroke-width="1" width="211" x="437" y="502"/>
<rect fill="none" height="152" stroke="#000000" stroke-width="1" width="211" x="437" y="502"/>
<text font-family="Dialog" font-size="12" x="486" y="515">
device_ads1115_t</text>
<rect fill="#000000" height="1" stroke="#000000" stroke-width="1" width="211" x="437" y="525"/>
<text font-family="Dialog" font-size="12" x="441" y="539">
config_reg : int</text>
<text font-family="Dialog" font-size="12" x="441" y="555">
val_name : char*</text>
<text font-family="Dialog" font-size="12" x="441" y="571">
i2c_master : i2c_master_regs_t*</text>
<rect fill="#000000" height="1" stroke="#000000" stroke-width="1" width="211" x="437" y="581"/>
<text font-family="Dialog" font-size="12" x="441" y="595">
send_data() : void</text>
<text font-family="Dialog" font-size="12" x="441" y="611">
init() : void</text>
<text font-family="Dialog" font-size="12" x="441" y="627">
get_control_in() : control_port_t*</text>
<text font-family="Dialog" font-size="12" x="441" y="643">
set_data_out() : void</text>
<polyline fill="none" points="525,502 525,438 589,438 589,230 661,230" stroke="#000000" stroke-width="1"/>
<polygon fill="#000000" points="525,502 520,492 525,482 530,492" stroke="#000000" stroke-width="1"/>
<polygon fill="none" points="525,502 520,492 525,482 530,492" stroke="#000000" stroke-width="1"/>
<text font-family="Dialog" font-size="12" x="496" y="485">
0..1</text>
<text font-family="Dialog" font-size="12" x="601" y="227">
1</text>
<polyline fill="none" points="629,502 629,374 1229,374 1229,253" stroke="#000000" stroke-width="1"/>
<polygon fill="#ffffff" points="629,502 624,492 629,482 634,492" stroke="#ffffff" stroke-width="1"/>
<polygon fill="none" points="629,502 624,492 629,482 634,492" stroke="#000000" stroke-width="1"/>
<text font-family="Dialog" font-size="12" x="635" y="467">
0..*</text>
<text font-family="Dialog" font-size="12" x="1451" y="348">
0..1</text>
<rect fill="#ffffff" height="152" stroke="#ffffff" stroke-width="1" width="211" x="717" y="702"/>
<rect fill="none" height="152" stroke="#000000" stroke-width="1" width="211" x="717" y="702"/>
<text font-family="Dialog" font-size="12" x="761" y="715">
device_max31855_t</text>
<rect fill="#000000" height="1" stroke="#000000" stroke-width="1" width="211" x="717" y="725"/>
<text font-family="Dialog" font-size="12" x="721" y="739">
spi_master : spi_master_regs_t</text>
<rect fill="#000000" height="1" stroke="#000000" stroke-width="1" width="211" x="717" y="749"/>
<text font-family="Dialog" font-size="12" x="721" y="763">
send_data() : void</text>
<text font-family="Dialog" font-size="12" x="721" y="779">
init() : void</text>
<text font-family="Dialog" font-size="12" x="721" y="795">
get_control_in() : control_port_t*</text>
<text font-family="Dialog" font-size="12" x="721" y="811">
set_data_out() : void</text>
<text font-family="Dialog" font-size="12" x="721" y="827">
set_internal_temp_out() : void</text>
<text font-family="Dialog" font-size="12" x="721" y="843">
set_error_out() : void</text>
<polyline fill="none" points="613,502 613,310 885,310 885,253" stroke="#000000" stroke-width="1"/>
<polygon fill="#ffffff" points="885,253 892,265 878,265" stroke="#ffffff" stroke-width="1"/>
<polygon fill="none" points="885,253 892,265 878,265" stroke="#000000" stroke-width="1"/>
<polyline fill="none" points="829,702 829,670 901,670 901,253" stroke="#000000" stroke-width="1"/>
<polygon fill="#ffffff" points="901,253 908,265 894,265" stroke="#ffffff" stroke-width="1"/>
<polygon fill="none" points="901,253 908,265 894,265" stroke="#000000" stroke-width="1"/>
<polyline fill="none" points="805,702 805,654 885,654 885,486 853,486 853,245" stroke="#000000" stroke-width="1"/>
<polygon fill="#000000" points="805,702 800,692 805,682 810,692" stroke="#000000" stroke-width="1"/>
<polygon fill="none" points="805,702 800,692 805,682 810,692" stroke="#000000" stroke-width="1"/>
<text font-family="Dialog" font-size="12" x="774" y="686">
0..*</text>
<text font-family="Dialog" font-size="12" x="832" y="272">
1</text>
<polyline fill="none" points="917,702 917,310 1189,310 1189,253" stroke="#000000" stroke-width="1"/>
<polygon fill="#ffffff" points="917,702 912,692 917,682 922,692" stroke="#ffffff" stroke-width="1"/>
<polygon fill="none" points="917,702 912,692 917,682 922,692" stroke="#000000" stroke-width="1"/>
<text font-family="Dialog" font-size="12" x="887" y="690">
0..*</text>
<text font-family="Dialog" font-size="12" x="1160" y="301">
0..3</text>
</svg>
